<svg width="220" height="103" viewBox="0 0 220 103" fill="none" xmlns="http://www.w3.org/2000/svg">
<path d="M61.68 23.88L50.7 66H38.28L31.56 38.28L24.6 66H12.18L1.5 23.88H12.48L18.54 54.54L26.04 23.88H37.32L44.52 54.54L50.64 23.88H61.68ZM76.1855 29.04C74.3855 29.04 72.9055 28.52 71.7455 27.48C70.6255 26.4 70.0655 25.08 70.0655 23.52C70.0655 21.92 70.6255 20.6 71.7455 19.56C72.9055 18.48 74.3855 17.94 76.1855 17.94C77.9455 17.94 79.3855 18.48 80.5055 19.56C81.6655 20.6 82.2455 21.92 82.2455 23.52C82.2455 25.08 81.6655 26.4 80.5055 27.48C79.3855 28.52 77.9455 29.04 76.1855 29.04ZM81.2855 32.52V66H71.0255V32.52H81.2855ZM113.381 66L103.181 51.96V66H92.9208V21.6H103.181V46.14L113.321 32.52H125.981L112.061 49.32L126.101 66H113.381ZM139.371 29.04C137.571 29.04 136.091 28.52 134.931 27.48C133.811 26.4 133.251 25.08 133.251 23.52C133.251 21.92 133.811 20.6 134.931 19.56C136.091 18.48 137.571 17.94 139.371 17.94C141.131 17.94 142.571 18.48 143.691 19.56C144.851 20.6 145.431 21.92 145.431 23.52C145.431 25.08 144.851 26.4 143.691 27.48C142.571 28.52 141.131 29.04 139.371 29.04ZM144.471 32.52V66H134.211V32.52H144.471ZM187.666 48.72C187.666 49.68 187.606 50.68 187.486 51.72H164.266C164.426 53.8 165.086 55.4 166.246 56.52C167.446 57.6 168.906 58.14 170.626 58.14C173.186 58.14 174.966 57.06 175.966 54.9H186.886C186.326 57.1 185.306 59.08 183.826 60.84C182.386 62.6 180.566 63.98 178.366 64.98C176.166 65.98 173.706 66.48 170.986 66.48C167.706 66.48 164.786 65.78 162.226 64.38C159.666 62.98 157.666 60.98 156.226 58.38C154.786 55.78 154.066 52.74 154.066 49.26C154.066 45.78 154.766 42.74 156.166 40.14C157.606 37.54 159.606 35.54 162.166 34.14C164.726 32.74 167.666 32.04 170.986 32.04C174.226 32.04 177.106 32.72 179.626 34.08C182.146 35.44 184.106 37.38 185.506 39.9C186.946 42.42 187.666 45.36 187.666 48.72ZM177.166 46.02C177.166 44.26 176.566 42.86 175.366 41.82C174.166 40.78 172.666 40.26 170.866 40.26C169.146 40.26 167.686 40.76 166.486 41.76C165.326 42.76 164.606 44.18 164.326 46.02H177.166ZM207.539 38.1C208.739 36.26 210.239 34.82 212.039 33.78C213.839 32.7 215.839 32.16 218.039 32.16V43.02H215.219C212.659 43.02 210.739 43.58 209.459 44.7C208.179 45.78 207.539 47.7 207.539 50.46V66H197.279V32.52H207.539V38.1Z" fill="black"/>
<circle cx="171" cy="49" r="26.5" stroke="black" stroke-width="7"/>
<path d="M153.785 72.3771C155.08 71.1425 157.051 70.952 158.559 71.9155C160.378 73.0771 160.902 75.4972 159.728 77.3072L147.272 96.5043C145.172 99.7408 140.75 100.483 137.709 98.1092C134.543 95.6389 134.311 90.9336 137.218 88.1638L153.785 72.3771Z" fill="black"/>
</svg>
